HIERARCHY
ROOT Hips
{
  OFFSET 3.13124 94.3669 -3.18751
  CHANNELS  6 Xposition Yposition Zposition Zrotation Xrotation Yrotation
  JOINT LeftUpLeg
  {
    OFFSET 8.64259 1.95398 -2.38835
    CHANNELS 3 Zrotation Xrotation Yrotation
    JOINT LeftLeg
    {
      OFFSET 43.7702 0 0
      CHANNELS 3 Zrotation Xrotation Yrotation
      JOINT LeftFoot
      {
        OFFSET 40.6238 0 0
        CHANNELS 3 Zrotation Xrotation Yrotation
        JOINT LeftToeBase
        {
          OFFSET 12.7242 0 0
          CHANNELS 3 Zrotation Xrotation Yrotation
          End Site
          {
            OFFSET 0 0 0
          }
        }
      }
    }
  }
  JOINT RightUpLeg
  {
    OFFSET -8.2249 1.95398 -2.59336
    CHANNELS 3 Zrotation Xrotation Yrotation
    JOINT RightLeg
    {
      OFFSET 43.5653 0 0
      CHANNELS 3 Zrotation Xrotation Yrotation
      JOINT RightFoot
      {
        OFFSET 40.6238 0 0
        CHANNELS 3 Zrotation Xrotation Yrotation
        JOINT RightToeBase
        {
          OFFSET 12.7242 0 0
          CHANNELS 3 Zrotation Xrotation Yrotation
          End Site
          {
            OFFSET 0 0 0
          }
        }
      }
    }
  }
  JOINT Spine
  {
    OFFSET 0.165834 0.87714 6.61349
    CHANNELS 3 Zrotation Xrotation Yrotation
    JOINT Spine1
    {
      OFFSET 7.38962 1.71661e-005 0
      CHANNELS 3 Zrotation Xrotation Yrotation
      JOINT Spine2
      {
        OFFSET 11.9445 1.14441e-005 0
        CHANNELS 3 Zrotation Xrotation Yrotation
        JOINT Spine3
        {
          OFFSET 14.7254 4.19617e-005 0
          CHANNELS 3 Zrotation Xrotation Yrotation
          JOINT Spine4
          {
            OFFSET 10.9679 0 0
            CHANNELS 3 Zrotation Xrotation Yrotation
            JOINT RightShoulder
            {
              OFFSET 2.46616 -1.6653 3.69651
              CHANNELS 3 Zrotation Xrotation Yrotation
              JOINT RightArm
              {
                OFFSET 13.0012 0 0
                CHANNELS 3 Zrotation Xrotation Yrotation
                JOINT RightForeArm
                {
                  OFFSET 28.7848 1.52588e-005 0
                  CHANNELS 3 Zrotation Xrotation Yrotation
                  JOINT RightHand
                  {
                    OFFSET 26.5688 1.52588e-005 0
                    CHANNELS 3 Zrotation Xrotation Yrotation
                    End Site
                    {
                      OFFSET 0 0 0
                    }
                  }
                }
              }
            }
            JOINT LeftShoulder
            {
              OFFSET 2.38034 -1.29275 -3.75231
              CHANNELS 3 Zrotation Xrotation Yrotation
              JOINT LeftArm
              {
                OFFSET 16.3182 6.10352e-005 0
                CHANNELS 3 Zrotation Xrotation Yrotation
                JOINT LeftForeArm
                {
                  OFFSET 27.0901 0 0
                  CHANNELS 3 Zrotation Xrotation Yrotation
                  JOINT LeftHand
                  {
                    OFFSET 24.5451 1.52588e-005 0
                    CHANNELS 3 Zrotation Xrotation Yrotation
                    End Site
                    {
                      OFFSET 0 0 0
                    }
                  }
                }
              }
            }
            JOINT Neck
            {
              OFFSET 5.0226 -0.0266342 0
              CHANNELS 3 Zrotation Xrotation Yrotation
              JOINT Head
              {
                OFFSET 6.69363 2.86102e-005 0
                CHANNELS 3 Zrotation Xrotation Yrotation
                End Site
                {
                  OFFSET 0 0 0
                }
              }
            }
          }
        }
      }
    }
  }
}
MOTION
Frames:	12
Frame Time:	0.0333333
4.92477 93.0221 -161.834 -61.501 -80.1282 -58.4071 -165.614 -6.67142 103.309 -16.4431 -35.7995 0.307861 51.8238 -22.751 -16.7298 28.7808 4.4302e-006 7.28589e-006 178.615 30.5824 79.2109 -45.425 -83.242 -19.2608 28.8438 -7.84476 -7.09268 28.7808 1.34702e-005 3.08416e-005 -3.31327 6.55302 -92.2828 13.6255 -8.02286 -3.8271 1.97482 -8.18341 -3.46863 -20.6571 -6.50284 -6.06538 -0.644423 -6.50286 -6.06541 98.5898 -60.4617 -86.8745 164.433 82.0298 -130.884 139.113 -53.8161 -46.0568 53.4656 0.605103 -3.8983 -70.4788 55.2178 73.0525 -55.5705 -47.2225 -150.67 -48.5678 -5.38609 -88.6168 -57.1252 -5.74062 5.45214 54.6834 -15.869 -10.4329 -65.9534 -21.1103 21.1048 
5.8113 92.9255 -162.016 -60.3908 -80.8249 -56.6971 -165.383 -6.8357 103.585 -16.1112 -35.4377 0.102014 53.718 -23.1692 -16.4078 28.7808 4.4302e-006 7.28589e-006 178.157 29.1237 79.1145 -39.5366 -81.9843 -15.922 30.7933 -6.04177 -5.0031 28.7808 1.34702e-005 3.08416e-005 -3.29078 6.54298 -92.2732 13.652 -7.94863 -3.75262 2.00095 -8.10599 -3.39756 -20.6301 -6.45486 -5.97176 -0.617508 -6.45487 -5.97179 88.6771 -56.5496 -101.273 -153.568 73.0399 -169.702 136.59 -51.5005 -49.5356 69.9776 -2.46198 -8.49981 -67.9806 61.5225 72.5706 -29.2322 -28.7572 -133.855 35.7616 4.20867 -84.5286 11.7614 -3.54407 -33.7361 51.0867 -19.7795 -16.3587 -65.4022 -23.6733 24.5514 
6.83124 92.896 -162.651 -52.4774 -82.3988 -47.8985 -164.58 -4.94667 104.798 -17.5675 -30.6928 0.215559 56.1974 -23.993 -16.1838 28.7808 4.4302e-006 7.28589e-006 177.007 25.7656 79.1834 -28.3207 -78.8641 -11.0767 33.9375 -2.53787 -1.29273 28.7808 1.34702e-005 3.08416e-005 -3.17294 6.56077 -92.2871 13.625 -7.69944 -3.71955 1.97286 -7.85569 -3.37494 -20.6511 -6.2259 -5.8695 -0.638409 -6.22593 -5.86954 83.0472 -51.7651 -110.746 -173.394 70.3556 -158.64 114.306 -58.3053 -68.3749 74.0541 -11.5341 -20.167 -66.6531 67.4009 74.8353 -28.1927 -26.8279 -132.541 41.6936 2.15744 -88.1926 15.8554 -4.8345 -33.2926 49.21 -22.4505 -19.6487 -65.8438 -25.1576 25.3265 
7.68569 92.5911 -163.384 -28.2958 -86.1546 -22.0973 -162.663 -1.69214 107.85 -21.7085 -22.3363 0.52489 61.1538 -24.7488 -15.0973 28.7808 4.4302e-006 7.28589e-006 177.061 24.1059 79.35 -27.1619 -75.3416 -8.6234 33.6845 -2.14653 -0.912914 28.7808 1.34702e-005 3.08416e-005 -3.01892 6.82691 -92.3274 13.0927 -7.36476 -3.84263 1.43798 -7.52666 -3.51361 -21.168 -5.87074 -5.88256 -1.15533 -5.87077 -5.88259 81.9589 -47.3368 -114.025 130.05 71.7205 -112.085 93.173 -65.4051 -86.4094 63.6687 -18.0379 -33.4313 -71.7459 72.8273 87.4227 -59.4489 -49.143 -149.792 70.6027 -0.182793 -91.3376 5.30939 -2.75745 -40.2524 51.4179 -23.9713 -19.4449 -67.4648 -25.6101 23.3784 
8.76598 92.3689 -164.501 63.8581 -84.3507 71.405 -162.387 3.53174 109.556 -26.832 -13.2972 2.8613 65.518 -24.5985 -13.643 28.7808 4.4302e-006 7.28589e-006 175.141 17.5731 78.9176 -17.0154 -70.443 -6.5079 35.4755 1.82827 2.9957 28.7808 1.34702e-005 3.08416e-005 -2.74478 7.09939 -92.4073 12.5594 -6.82038 -3.90619 0.90134 -6.98557 -3.60153 -21.6831 -5.33264 -5.77621 -1.67047 -5.33264 -5.77623 84.158 -44.8463 -111.527 68.7902 64.9455 -52.4951 56.4823 -66.3446 -120.289 50.5222 -22.6451 -49.8744 -92.1128 75.5418 120.274 -41.8939 -24.8862 -154.172 -149.047 16.3317 -64.5361 -5.68953 1.50383 -91.6365 56.974 -25.7001 -17.4651 -69.151 -26.3254 21.3058 
9.35036 92.2475 -165.881 80.2491 -75.6793 90.0017 -163.497 11.6256 111.039 -33.9949 -3.67139 7.0885 67.464 -23.924 -12.7111 28.7808 4.4302e-006 7.28589e-006 174.465 12.9593 79.3564 -12.2787 -64.534 -5.07655 33.9727 4.31868 5.56914 28.7808 1.34702e-005 3.08416e-005 -2.45501 7.35035 -92.3467 12.0596 -6.14944 -3.93547 0.398225 -6.31649 -3.65891 -22.1641 -4.6847 -5.59902 -2.1515 -4.68473 -5.59906 88.8096 -46.3927 -103.596 39.8162 46.0531 -30.9629 42.8549 -55.3302 -130.433 46.8562 -28.8974 -65.7728 -113.373 71.3081 158.445 -88.7198 -55.0935 -170.788 -127.789 0.211029 -90.0095 -67.8054 -6.38552 7.46205 61.9736 -29.5071 -17.8039 -69.4268 -28.0012 20.5795 
9.58437 92.0987 -167.566 82.0146 -66.1992 93.4205 -166.366 20.2623 110.866 -41.6049 2.49861 11.1652 66.2328 -23.6896 -12.9459 28.7808 4.4302e-006 7.28589e-006 174.13 9.38171 79.3288 -8.93627 -56.5834 -3.85033 33.8084 6.37997 7.49802 28.7808 1.34702e-005 3.08416e-005 -2.13866 7.46454 -92.056 11.833 -5.36597 -3.82821 0.168389 -5.5293 -3.58625 -22.3766 -3.96809 -5.27022 -2.36398 -3.96811 -5.27024 94.6595 -49.5034 -93.7194 29.8599 23.419 -46.9083 52.3738 -47.9435 -119.065 40.034 -30.8238 -78.9828 -111.414 61.7487 174.382 -147.754 -54.3735 138.74 -90.082 -9.21933 -93.0725 -71.6813 1.20302 -6.27022 65.9655 -33.1352 -18.0752 -68.0482 -29.4758 19.9743 
9.63543 91.7923 -169.325 81.8262 -57.158 94.6218 -169.632 27.4239 109.794 -47.2147 6.52019 14.4296 64.9856 -22.7463 -12.7908 28.7808 4.4302e-006 7.28589e-006 173.83 6.28316 79.2525 -6.32444 -48.5524 -3.00644 34.0502 7.83055 8.80407 28.7808 1.34702e-005 3.08416e-005 -1.80508 7.48646 -91.9896 11.7861 -4.61079 -4.03604 0.117636 -4.78386 -3.82933 -22.4032 -3.18637 -5.23371 -2.39052 -3.18638 -5.23374 99.6664 -50.9061 -85.8309 27.2696 30.0326 -43.8828 88.6854 -24.0935 -91.6417 80.6162 -35.3245 -45.8694 -99.1121 51.1673 176.36 -83.5875 -40.7875 163.241 19.4481 1.23241 -89.7275 -43.6192 -19.2626 44.5681 72.4058 -32.025 -12.1801 -69.7393 -28.9161 15.5642 
9.68556 91.4696 -170.906 81.5881 -49.2494 95.5368 -172.332 32.9429 108.446 -51.2034 8.19895 16.1177 63.1051 -22.2188 -13.0533 28.7808 4.4302e-006 7.28589e-006 173.781 4.74236 79.2209 -6.66083 -44.2617 -2.65406 33.4773 7.79143 8.85906 28.7808 1.34702e-005 3.08416e-005 -1.55022 7.57893 -91.9334 11.6092 -3.99566 -4.09351 -0.0614348 -4.1716 -3.91267 -22.5688 -2.58419 -5.09824 -2.55611 -2.5842 -5.09825 101.941 -54.1883 -82.3219 25.201 19.8696 -70.3022 113.054 -9.31142 -87.6171 79.3343 -37.0237 -48.9312 -88.422 41.6391 177.091 -86.0499 -58.1766 128.131 17.414 26.9962 -32.6191 -8.074 -3.2868 48.9061 77.6778 -31.2335 -9.28773 -70.7035 -28.9298 14.3692 
9.70008 90.702 -172.287 81.3906 -42.0766 95.8809 -174.534 37.772 106.652 -55.251 8.88748 16.4537 62.4546 -20.611 -12.2907 28.7808 4.4302e-006 7.28589e-006 175.2 7.71411 78.7611 -17.3316 -39.4205 -2.33295 37.1633 4.63528 5.26408 28.7808 1.34702e-005 3.08416e-005 -1.40421 7.62767 -91.7097 11.5277 -3.56951 -3.86538 -0.142924 -3.73689 -3.70325 -22.6538 -2.23709 -4.76768 -2.64118 -2.2371 -4.76771 93.8399 -60.1678 -93.4511 22.7049 19.7455 -93.0721 159.049 9.98351 -122.935 124.961 -0.433701 -5.14479 -81.4349 34.9726 176.353 -137.867 -63.0372 68.0094 1.65563 -44.8185 -2.51974 8.80131 -1.30031 -20.6973 79.2732 -30.9588 -10.1973 -68.8243 -29.17 17.4913 
9.72441 89.561 -173.238 82.5594 -36.7422 95.5987 -174.971 41.0773 104.265 -59.6014 7.98865 14.5268 61.7455 -17.9354 -10.8994 28.7808 4.4302e-006 7.28589e-006 176.319 10.048 76.9799 -27.4224 -36.1347 -2.13344 39.308 2.40581 2.95709 28.7808 1.34702e-005 3.08416e-005 -0.974221 7.61846 -91.6662 11.5441 -2.69938 -4.60236 -0.13072 -2.89665 -4.47768 -22.616 -1.23047 -5.211 -2.60338 -1.23048 -5.21103 90.8982 -51.006 -99.2372 20.7942 14.9571 -107.388 178.487 -6.19692 -161.302 116.296 35.1337 17.4102 -72.9822 25.4227 168.441 -2.15403 18.1344 162.757 5.93568 63.0222 -7.03278 70.328 -4.87172 -10.7209 88.9462 -12.2884 5.3724 -81.8171 -20.9995 5.17525 
10.0309 88.3974 -174.081 84.7983 -32.89 94.7948 -174.425 42.375 101.268 -63.4849 7.81384 12.4471 61.0512 -14.7523 -9.15886 28.7808 4.4302e-006 7.28589e-006 176.494 9.31042 73.8422 -32.7593 -34.7643 -2.08204 42.5471 1.47976 1.92114 28.7808 1.34702e-005 3.08416e-005 -1.13072 7.72782 -89.8198 11.3274 -2.03514 -1.74706 -0.342969 -2.10978 -1.65379 -22.8775 -1.45759 -2.29174 -2.86484 -1.45758 -2.29176 85.2522 -56.6939 -105.913 23.1488 2.15278 -115.747 176.095 0.219788 -179.998 105.021 36.1086 22.3767 -78.8092 32.4748 172.847 -2.23275 23.6281 169.15 4.85772 56.081 -5.94104 72.4165 -6.96538 -13.3383 61.8697 -35.8898 -34.6846 -52.511 -28.1108 41.9946 
